<svg xmlns="http://www.w3.org/2000/svg" width="126.865" height="126.865" viewBox="0 0 126.865 126.865">
  <path id="Icon_-_Linkedin" data-name="Icon - Linkedin" d="M63.432,0A63.432,63.432,0,1,1,0,63.432,63.463,63.463,0,0,1,63.432,0ZM43.6,99.081V49.544H27.132V99.081Zm59.374,0V70.674c0-15.216-8.124-22.295-18.958-22.295-8.736,0-12.649,4.8-14.839,8.179V49.544H52.713c.218,4.648,0,49.537,0,49.537H69.177V71.416A11.256,11.256,0,0,1,69.72,67.4a9.011,9.011,0,0,1,8.448-6.021c5.955,0,8.341,4.544,8.341,11.2v26.5h16.465Zm-67.5-73.423c-5.635,0-9.316,3.7-9.316,8.56,0,4.753,3.569,8.559,9.1,8.559h.106c5.742,0,9.317-3.806,9.317-8.559-.107-4.855-3.574-8.56-9.2-8.56Z" fill="#fff" fill-rule="evenodd"/>
</svg>
