<svg id="Instagram-Glyph-Black-Logo.wine" xmlns="http://www.w3.org/2000/svg" width="126.865" height="126.865" viewBox="0 0 126.865 126.865">
  <path id="Path_1" data-name="Path 1" d="M63.433,0C46.205,0,44.045.073,37.279.382a46.565,46.565,0,0,0-15.4,2.948,31.093,31.093,0,0,0-11.235,7.316A31.09,31.09,0,0,0,3.33,21.882a46.562,46.562,0,0,0-2.949,15.4C.073,44.045,0,46.205,0,63.433S.073,82.82.381,89.586a46.562,46.562,0,0,0,2.949,15.4,31.1,31.1,0,0,0,7.316,11.235,31.1,31.1,0,0,0,11.235,7.316,46.57,46.57,0,0,0,15.4,2.948c6.766.309,8.926.382,26.153.382s19.387-.073,26.153-.382a46.563,46.563,0,0,0,15.4-2.948,32.436,32.436,0,0,0,18.552-18.552,46.563,46.563,0,0,0,2.948-15.4c.309-6.766.382-8.926.382-26.153s-.073-19.388-.382-26.153a46.563,46.563,0,0,0-2.948-15.4,31.1,31.1,0,0,0-7.316-11.235A31.1,31.1,0,0,0,104.983,3.33,46.563,46.563,0,0,0,89.586.382C82.82.073,80.66,0,63.433,0Zm0,11.429c16.937,0,18.943.065,25.632.37a35.09,35.09,0,0,1,11.778,2.184,19.651,19.651,0,0,1,7.294,4.745,19.654,19.654,0,0,1,4.745,7.294A35.094,35.094,0,0,1,115.066,37.8c.305,6.689.37,8.7.37,25.632s-.065,18.943-.37,25.632a35.09,35.09,0,0,1-2.184,11.778,21.008,21.008,0,0,1-12.039,12.039,35.093,35.093,0,0,1-11.779,2.184c-6.688.305-8.694.37-25.632.37s-18.944-.065-25.632-.37a35.086,35.086,0,0,1-11.778-2.184,19.649,19.649,0,0,1-7.294-4.745,19.654,19.654,0,0,1-4.745-7.293A35.1,35.1,0,0,1,11.8,89.065c-.305-6.689-.37-8.7-.37-25.632s.065-18.943.37-25.632a35.094,35.094,0,0,1,2.184-11.778,19.654,19.654,0,0,1,4.745-7.294,19.654,19.654,0,0,1,7.294-4.745A35.093,35.093,0,0,1,37.8,11.8c6.689-.305,8.7-.37,25.632-.37" transform="translate(0)" fill="#fff"/>
  <path id="Path_2" data-name="Path 2" d="M195.982,178.9a21.144,21.144,0,1,1,21.144-21.144A21.144,21.144,0,0,1,195.982,178.9Zm0-53.718a32.573,32.573,0,1,0,32.573,32.574,32.573,32.573,0,0,0-32.573-32.574m41.472-1.287a7.612,7.612,0,1,1-7.612-7.612,7.612,7.612,0,0,1,7.612,7.612" transform="translate(-132.549 -94.325)" fill="#fff"/>
</svg>
