<svg xmlns="http://www.w3.org/2000/svg" width="126.872" height="126.865" viewBox="0 0 126.872 126.865">
  <g id="layer1" transform="translate(-238.082 -382.37)">
    <ellipse id="path3794" cx="63.436" cy="63.432" rx="63.436" ry="63.432" transform="translate(238.082 382.37)" fill="#fff"/>
    <g id="layer1-7" transform="translate(262.747 417.715)">
      <g id="g6564" transform="translate(0 0)">
        <path id="path4323" d="M3834.489,1021.429a3.17,3.17,0,0,0-3.163,3.16v49.849a3.174,3.174,0,0,0,3.163,3.166h71.216a3.174,3.174,0,0,0,3.163-3.166v-49.849a3.171,3.171,0,0,0-3.163-3.16Zm8.431,7.573h54.335l-27.164,23.734Zm59.622,3.78v35.064l-19.865-17.708Zm-64.89.02,19.948,17.431-19.948,17.784Zm40.226,21.528,18.9,16.851h-53.165l18.79-16.752,5.6,4.895a3.173,3.173,0,0,0,4.162,0Z" transform="translate(-3831.327 -1021.429)" fill="#414141"/>
      </g>
    </g>
  </g>
</svg>
